<?xml version="1.0" standalone="no"?>
<!DOCTYPE svg PUBLIC "-//W3C//DTD SVG 20010904//EN"
 "http://www.w3.org/TR/2001/REC-SVG-20010904/DTD/svg10.dtd">
<svg version="1.0" xmlns="http://www.w3.org/2000/svg"
 width="315.000000pt" height="338.000000pt" viewBox="0 0 315.000000 338.000000"
 preserveAspectRatio="xMidYMid meet">
<metadata>
Created by potrace 1.15, written by Peter Selinger 2001-2017
</metadata>
<g transform="translate(0.000000,338.000000) scale(0.100000,-0.100000)"
fill="#000000" stroke="none">
<path d="M0 2605 c0 -426 3 -775 8 -775 18 -1 40 -28 46 -58 7 -31 6 -32 -23
-32 l-31 0 0 -135 c0 -74 3 -135 6 -135 3 0 12 7 21 16 18 18 29 10 39 -30 7
-28 6 -28 -30 -24 -34 4 -36 2 -36 -23 0 -24 3 -27 33 -24 17 1 42 -1 53 -6
31 -11 67 17 61 47 -7 36 10 29 24 -11 13 -35 14 -36 84 -40 37 -2 44 -12 34
-52 -5 -21 -9 -57 -9 -81 0 -24 -5 -63 -11 -86 l-11 -43 -66 -7 c-37 -3 -95
-6 -129 -6 l-62 0 -1 -550 0 -550 770 0 c609 0 770 3 770 13 0 17 -32 168 -68
322 -60 259 -74 322 -97 460 -13 77 -26 169 -30 205 -6 59 -5 63 9 47 14 -18
16 -18 73 3 81 30 127 64 149 110 17 36 23 40 57 40 34 0 45 -8 111 -75 40
-41 88 -81 106 -89 33 -14 35 -13 74 20 22 19 44 34 49 34 12 0 2 -108 -24
-260 -11 -63 -25 -151 -30 -195 -22 -187 -79 -490 -115 -617 -5 -17 30 -18
639 -18 l645 0 -5 23 c-5 18 -3 20 8 10 7 -7 23 -13 36 -13 l23 0 0 409 0 409
-30 4 c-26 4 -30 1 -30 -18 0 -18 -17 -34 -35 -34 -1 0 -2 22 -2 50 1 56 -7
71 -26 47 -15 -21 -40 -7 -35 19 2 15 19 22 81 33 l77 14 0 34 c0 31 -2 33
-28 27 -15 -4 -51 -16 -80 -26 -40 -15 -57 -17 -65 -9 -7 7 -14 66 -17 149 -4
104 -9 144 -21 163 -10 15 -47 37 -100 58 -148 60 -165 82 -55 74 43 -4 74 -1
95 8 l31 14 0 121 c0 86 -4 125 -13 132 -12 11 -15 157 -3 170 3 3 6 -6 6 -21
0 -14 4 -29 10 -32 5 -3 10 -22 10 -41 0 -19 4 -34 9 -34 5 0 9 -10 9 -22 0
-13 5 -53 11 -90 6 -37 10 -71 9 -75 -1 -4 1 -36 5 -70 9 -74 33 -88 35 -22 1
23 7 48 13 55 9 11 8 18 -2 30 -10 13 -9 24 5 67 10 29 22 62 28 74 6 12 8 34
6 48 -3 15 0 46 7 70 8 24 11 45 8 48 -2 3 2 38 11 79 9 40 18 91 20 113 7 71
18 115 27 109 5 -3 6 1 3 9 -3 8 0 18 7 23 9 5 10 -3 4 -37 -17 -100 -50 -373
-60 -486 -4 -61 -4 -63 19 -63 60 0 56 -58 55 764 -1 413 -4 741 -6 729 -11
-56 -47 3 -48 78 0 38 -6 62 -17 73 -21 20 -24 20 -51 -4 -12 -12 -32 -23 -44
-27 -27 -6 -54 12 -46 33 3 8 -1 14 -11 14 -8 0 -18 11 -22 25 -6 24 -14 29
-41 26 -7 -1 -22 3 -34 9 -16 9 -19 18 -15 36 6 22 3 24 -29 24 -28 0 -35 -4
-35 -20 0 -11 -7 -20 -16 -20 -11 0 -14 6 -9 20 6 20 2 20 -1359 20 l-1366 0
0 -775z m1895 331 c67 -1 119 -21 151 -57 30 -34 54 -102 54 -154 0 -29 4 -45
13 -46 9 0 9 -2 0 -5 -7 -3 -9 -12 -6 -21 5 -13 2 -15 -16 -10 -17 4 -21 2
-17 -9 4 -9 -1 -14 -15 -14 -12 0 -17 -4 -14 -11 4 -6 13 -8 21 -5 9 3 14 -2
14 -14 0 -17 -7 -20 -47 -20 -47 0 -193 -23 -224 -35 -8 -3 -23 -18 -32 -34
-9 -16 -28 -31 -42 -33 -36 -7 -75 2 -75 17 0 29 -55 54 -136 61 -43 4 -86 8
-94 9 -20 3 -61 -18 -84 -44 -22 -25 -87 -29 -105 -7 -15 18 -7 222 10 259 9
21 17 25 38 21 20 -3 36 5 74 40 73 67 121 86 218 86 49 0 93 6 112 14 42 20
76 25 112 19 17 -3 57 -6 90 -7z m-1356 -104 c-4 -20 -11 -47 -14 -59 -8 -24
2 -28 51 -24 24 2 39 -34 28 -63 -3 -9 -2 -16 4 -16 15 0 22 -41 11 -62 -5
-10 -18 -18 -29 -18 -22 0 -39 22 -22 28 17 5 15 39 -4 46 -8 3 -24 2 -33 -4
-20 -10 -31 -4 -31 17 0 9 8 11 25 7 31 -8 33 8 3 21 -13 6 -22 18 -22 27 1
10 -3 16 -9 15 -14 -3 -32 46 -24 67 4 9 18 16 34 16 20 0 24 3 14 9 -17 11
-7 43 12 35 11 -4 12 -14 6 -42z m258 -188 c3 -8 1 -25 -5 -37 -22 -46 -6
-137 25 -137 7 0 13 5 13 10 0 6 5 10 11 10 6 0 9 -7 5 -15 -3 -8 -1 -15 5
-15 6 0 9 -6 6 -14 -3 -8 4 -21 16 -29 22 -14 74 -143 63 -155 -3 -3 0 -12 8
-21 7 -9 16 -36 19 -61 l6 -46 -62 1 c-57 0 -62 -2 -65 -23 -4 -23 -2 -23 52
-17 55 7 56 7 66 -21 6 -16 17 -41 25 -56 28 -49 15 -158 -18 -158 -7 0 -13
-12 -14 -27 -2 -64 -3 -69 -12 -53 -6 8 -7 18 -5 22 3 4 1 8 -3 8 -5 0 -13
-10 -18 -22 -6 -15 -18 -23 -33 -22 -12 0 -22 -3 -22 -8 0 -4 -11 -8 -24 -8
-14 0 -27 -4 -31 -9 -3 -6 -19 -4 -40 5 -19 8 -48 14 -65 14 l-30 0 20 20 c12
12 25 18 30 15 5 -3 11 -1 15 5 3 5 1 10 -4 10 -6 0 -11 7 -11 15 0 9 -9 15
-24 15 -13 0 -29 6 -35 14 -10 12 -8 19 8 35 27 27 31 26 32 -6 1 -24 2 -25 7
-7 5 14 14 20 27 18 23 -3 54 26 62 59 9 41 8 60 -4 64 -8 3 -13 -3 -13 -14 0
-23 -70 -57 -85 -41 -7 7 -6 12 3 15 6 3 12 14 12 26 0 15 -3 18 -9 9 -4 -7
-21 -16 -37 -21 -20 -5 -28 -13 -26 -25 2 -11 -1 -15 -7 -11 -6 3 -11 -1 -11
-9 0 -9 -2 -16 -4 -16 -2 0 -12 -3 -21 -6 -16 -6 -16 -5 -2 23 21 39 13 66
-24 82 -16 7 -29 19 -29 27 0 8 -9 14 -20 14 -11 0 -20 5 -20 10 0 6 12 10 28
10 l27 1 -27 17 c-25 15 -28 23 -28 69 0 49 2 53 24 53 19 0 24 5 23 20 -1 11
-7 20 -14 20 -14 0 -29 63 -18 79 3 6 14 11 23 11 22 0 46 58 32 75 -13 16 -2
25 32 25 18 0 28 -5 28 -14 0 -12 6 -13 30 -5 17 6 30 17 30 25 0 8 10 14 25
14 27 0 30 7 15 30 -9 13 -13 12 -29 -7 -11 -13 -26 -23 -34 -23 -17 0 -31 43
-16 49 8 2 7 6 -1 11 -9 6 -8 14 5 34 17 25 55 36 55 16 0 -5 7 -7 15 -4 8 4
15 13 15 22 0 16 29 50 43 51 4 1 10 -6 14 -15z m388 -214 c13 -14 19 -39 21
-78 3 -76 3 -72 14 -72 6 0 10 32 10 75 0 67 2 74 18 68 29 -11 58 -48 82
-106 17 -41 32 -60 59 -75 42 -23 98 -35 105 -23 3 5 -16 11 -43 15 -65 8 -89
30 -96 84 -6 48 2 52 56 25 34 -17 127 -30 151 -20 7 2 16 4 19 3 3 0 13 5 23
13 21 18 30 9 22 -23 -8 -34 -45 -71 -79 -80 -15 -4 -25 -11 -22 -16 6 -9 60
3 79 19 6 5 29 42 51 80 46 82 64 88 97 33 13 -21 29 -47 35 -57 7 -11 19 -34
28 -51 l16 -31 96 -2 c53 -1 100 -4 104 -7 4 -2 9 3 13 11 3 8 11 15 17 15 11
0 5 -63 -9 -85 -4 -5 -5 -18 -3 -28 1 -12 -5 -20 -18 -24 -12 -3 -21 -11 -21
-18 0 -8 -7 -21 -16 -29 -8 -9 -13 -16 -9 -16 4 0 0 -7 -9 -15 -18 -18 -33
-19 -39 -2 -2 7 -23 12 -55 12 -28 0 -49 -2 -46 -6 3 -6 -86 -17 -200 -24 -28
-2 -68 2 -89 8 -31 9 -40 8 -48 -4 -16 -26 -10 -47 14 -47 12 0 51 -2 87 -6
37 -3 57 -2 46 2 -19 8 -18 9 5 15 36 10 112 8 129 -3 10 -6 11 -10 3 -10 -7
0 -13 -4 -13 -10 0 -5 11 -10 24 -10 31 0 39 -12 23 -34 -16 -21 -74 -35 -152
-37 -33 0 -53 -3 -45 -6 8 -3 19 -12 23 -20 5 -7 13 -10 19 -7 6 4 14 1 18 -6
10 -16 99 -24 115 -10 14 12 68 -7 60 -21 -3 -4 -1 -11 5 -14 14 -9 3 -44 -23
-72 -27 -30 -122 -33 -143 -5 -12 15 -13 15 -14 1 0 -22 -51 -29 -104 -16 -43
11 -96 44 -96 60 0 5 -11 22 -25 39 -14 16 -25 40 -25 53 0 17 -4 23 -14 19
-8 -3 -13 2 -13 13 0 66 -3 74 -23 68 -12 -4 -20 -2 -20 5 0 7 -8 9 -21 5 -19
-6 -21 -4 -15 18 5 21 2 26 -19 31 -16 4 -25 13 -25 27 0 11 -4 18 -8 15 -5
-3 -9 13 -10 36 -2 45 -12 67 -12 27 0 -29 -17 -49 -40 -49 -33 0 -48 33 -55
120 -4 47 -11 103 -15 125 -11 50 -3 86 16 78 21 -8 30 28 11 42 -18 13 -23
35 -9 35 5 0 17 -9 27 -20z m1418 -67 c16 -36 16 -39 -2 -53 -10 -8 -30 -32
-46 -52 -15 -22 -36 -38 -47 -38 -11 0 -34 -11 -52 -25 -36 -28 -87 -33 -108
-11 -12 11 -18 11 -37 -5 -31 -25 -49 -24 -53 4 -3 22 9 34 59 56 24 11 39 31
24 31 -6 0 -11 4 -11 9 0 9 42 24 68 26 7 0 18 11 25 25 15 31 83 42 93 16 4
-10 19 -16 40 -16 42 0 43 11 4 29 -29 12 -30 14 -13 27 28 21 38 17 56 -23z
m-523 -34 c0 -32 -37 -86 -63 -93 -35 -9 -103 -7 -134 5 -41 15 -73 49 -73 76
0 22 3 24 42 18 23 -4 50 -11 59 -15 9 -5 19 -7 22 -3 3 3 23 5 44 5 21 0 49
6 63 13 34 19 40 18 40 -6z m120 -499 c28 -16 55 -30 60 -30 17 0 70 -35 70
-47 0 -7 8 -13 18 -13 27 0 72 -23 72 -37 0 -6 12 -13 28 -15 16 -2 31 -12 37
-25 8 -20 17 -23 62 -23 45 0 53 -3 53 -19 0 -12 -11 -23 -30 -30 -16 -5 -30
-14 -30 -20 0 -9 41 -46 76 -68 15 -9 4 -11 -56 -9 -79 3 -124 16 -230 64 -36
16 -87 38 -113 48 -61 24 -102 58 -156 128 -41 53 -42 56 -27 78 39 55 93 61
166 18z m-875 -28 c11 -8 29 -36 48 -72 6 -14 23 -34 37 -45 33 -25 128 -118
115 -112 -5 3 -10 -7 -10 -22 0 -22 4 -27 18 -23 14 3 15 7 6 18 -9 11 -9 14
0 14 6 0 14 -14 18 -30 4 -24 10 -29 24 -25 15 5 17 3 12 -11 -4 -10 -2 -15 4
-11 5 3 23 -1 39 -9 16 -9 60 -17 98 -19 l68 -4 47 48 c55 58 136 167 145 199
4 12 11 22 16 22 5 0 12 -10 17 -22 9 -25 7 -304 -3 -319 -3 -5 -38 -9 -77 -9
-76 0 -177 -21 -213 -45 -34 -22 -139 -10 -257 30 -111 37 -147 43 -147 23 0
-29 -22 -90 -30 -82 -4 5 -16 52 -26 104 -24 126 -24 256 0 343 17 64 28 76
51 59z"/>
<path d="M1800 2173 c-14 -2 -38 -9 -53 -15 -21 -8 -38 -8 -68 2 -68 23 -128
-26 -61 -50 48 -18 72 -33 72 -46 0 -21 19 -26 36 -10 18 18 40 21 49 6 11
-18 35 -11 44 13 5 13 16 29 25 36 36 30 8 71 -44 64z"/>
<path d="M0 1193 l0 -63 83 0 c85 0 107 8 107 42 0 10 -15 32 -33 49 -30 28
-41 32 -95 33 l-62 2 0 -63z"/>
</g>
</svg>
